<svg width="45" height="44" viewBox="0 0 45 44" fill="none" xmlns="http://www.w3.org/2000/svg">
<rect x="0.699951" width="44" height="44" rx="22" fill="white" fill-opacity="0.03"/>
<rect x="1.0981" y="0.398148" width="43.2037" height="43.2037" rx="21.6019" stroke="url(#paint0_linear_106_26716)" stroke-opacity="0.5" stroke-width="0.796296"/>
<path d="M14.1285 14H21.2714C21.6503 14 22.0136 14.1686 22.2815 14.4686C22.5494 14.7687 22.7 15.1757 22.7 15.6C22.7 16.0243 22.5494 16.4313 22.2815 16.7314C22.0136 17.0314 21.6503 17.2 21.2714 17.2H14.1285C13.7496 17.2 13.3863 17.0314 13.1184 16.7314C12.8505 16.4313 12.7 16.0243 12.7 15.6C12.7 15.1757 12.8505 14.7687 13.1184 14.4686C13.3863 14.1686 13.7496 14 14.1285 14ZM24.1285 26.8H31.2714C31.6503 26.8 32.0136 26.9686 32.2815 27.2686C32.5494 27.5687 32.7 27.9757 32.7 28.4C32.7 28.8243 32.5494 29.2313 32.2815 29.5314C32.0136 29.8314 31.6503 30 31.2714 30H24.1285C23.7496 30 23.3863 29.8314 23.1184 29.5314C22.8505 29.2313 22.7 28.8243 22.7 28.4C22.7 27.9757 22.8505 27.5687 23.1184 27.2686C23.3863 26.9686 23.7496 26.8 24.1285 26.8ZM14.1285 20.4H31.2714C31.6503 20.4 32.0136 20.5686 32.2815 20.8686C32.5494 21.1687 32.7 21.5757 32.7 22C32.7 22.4243 32.5494 22.8313 32.2815 23.1314C32.0136 23.4314 31.6503 23.6 31.2714 23.6H14.1285C13.7496 23.6 13.3863 23.4314 13.1184 23.1314C12.8505 22.8313 12.7 22.4243 12.7 22C12.7 21.5757 12.8505 21.1687 13.1184 20.8686C13.3863 20.5686 13.7496 20.4 14.1285 20.4Z" fill="#F8F8F8"/>
<defs>
<linearGradient id="paint0_linear_106_26716" x1="92.4248" y1="-13.477" x2="25.7304" y2="51.7796" gradientUnits="userSpaceOnUse">
<stop stop-color="#24C26D"/>
<stop offset="1" stop-color="#24C26D" stop-opacity="0"/>
</linearGradient>
</defs>
</svg>
