<svg width="18" height="19" viewBox="0 0 18 19" fill="none" xmlns="http://www.w3.org/2000/svg">
<path d="M9 0C10.1935 0 11.3381 0.500445 12.182 1.39124C13.0259 2.28204 13.5 3.49022 13.5 4.75C13.5 6.00978 13.0259 7.21796 12.182 8.10876C11.3381 8.99956 10.1935 9.5 9 9.5C7.80653 9.5 6.66193 8.99956 5.81802 8.10876C4.97411 7.21796 4.5 6.00978 4.5 4.75C4.5 3.49022 4.97411 2.28204 5.81802 1.39124C6.66193 0.500445 7.80653 0 9 0ZM9 19C9 19 18 19 18 16.625C18 13.775 13.6125 10.6875 9 10.6875C4.3875 10.6875 0 13.775 0 16.625C0 19 9 19 9 19Z" fill="#808080"/>
</svg>
