<svg width="40" height="40" viewBox="0 0 40 40" fill="none" xmlns="http://www.w3.org/2000/svg">
<g clip-path="url(#clip0_556_2355)">
<rect width="40" height="40" rx="20" fill="#2F4156"/>
<rect width="40" height="40" fill="#A2C9FF"/>
<mask id="mask0_556_2355" style="mask-type:alpha" maskUnits="userSpaceOnUse" x="8" y="8" width="24" height="24">
<rect x="8" y="8" width="24" height="24" fill="#D9D9D9"/>
</mask>
<g mask="url(#mask0_556_2355)">
<path d="M19.9998 30C19.7165 30 19.4791 29.904 19.2878 29.712C19.0958 29.5207 18.9998 29.2834 18.9998 29V13.825L15.0998 17.7C14.9165 17.8834 14.6871 17.9794 14.4118 17.988C14.1371 17.996 13.8998 17.9 13.6998 17.7C13.5165 17.5167 13.4248 17.2834 13.4248 17C13.4248 16.7167 13.5165 16.4834 13.6998 16.3L19.2998 10.7C19.3998 10.6 19.5081 10.529 19.6248 10.487C19.7415 10.4457 19.8665 10.425 19.9998 10.425C20.1331 10.425 20.2581 10.4457 20.3748 10.487C20.4915 10.529 20.5998 10.6 20.6998 10.7L26.2998 16.3C26.4831 16.4834 26.5748 16.7124 26.5748 16.987C26.5748 17.2624 26.4831 17.5 26.2998 17.7C26.0998 17.9 25.8621 18 25.5868 18C25.3121 18 25.0748 17.9 24.8748 17.7L20.9998 13.825V29C20.9998 29.2834 20.9041 29.5207 20.7128 29.712C20.5208 29.904 20.2831 30 19.9998 30Z" fill="#0E181E"/>
</g>
</g>
<defs>
<clipPath id="clip0_556_2355">
<rect width="40" height="40" rx="20" fill="white"/>
</clipPath>
</defs>
</svg>
