<svg width="22" height="22" viewBox="0 0 22 22" fill="none" xmlns="http://www.w3.org/2000/svg">
<path d="M19.7182 11.5084C19.543 11.3125 19.4464 11.0607 19.4464 10.8C19.4464 10.5393 19.543 10.2875 19.7182 10.0916L21.117 8.54602C21.2711 8.37715 21.3669 8.16467 21.3904 7.93906C21.414 7.71345 21.3642 7.48631 21.2481 7.29023L19.0625 3.57653C18.9477 3.38068 18.7728 3.22543 18.5628 3.13291C18.3528 3.0404 18.1185 3.01536 17.8932 3.06134L15.8387 3.4692C15.5773 3.52225 15.3051 3.47949 15.0736 3.34899C14.8421 3.21849 14.6672 3.00926 14.582 2.76081L13.9153 0.796627C13.842 0.583443 13.7023 0.398279 13.5161 0.267309C13.3298 0.136339 13.1063 0.0661865 12.8772 0.0667673H8.50589C8.26758 0.0545507 8.03176 0.119281 7.83443 0.251072C7.6371 0.382863 7.48911 0.57447 7.41307 0.796627L6.8011 2.76081C6.71586 3.00926 6.54097 3.21849 6.30945 3.34899C6.07793 3.47949 5.80578 3.52225 5.54436 3.4692L3.43522 3.06134C3.22163 3.03169 3.00388 3.0648 2.80941 3.15648C2.61494 3.24816 2.45245 3.39431 2.3424 3.57653L0.156766 7.29023C0.0378235 7.48413 -0.0156567 7.70999 0.0039708 7.93554C0.0235983 8.16108 0.115329 8.37476 0.266047 8.54602L1.65393 10.0916C1.82913 10.2875 1.92575 10.5393 1.92575 10.8C1.92575 11.0607 1.82913 11.3125 1.65393 11.5084L0.266047 13.054C0.115329 13.2252 0.0235983 13.4389 0.0039708 13.6645C-0.0156567 13.89 0.0378235 14.1159 0.156766 14.3098L2.3424 18.0235C2.45725 18.2193 2.63213 18.3746 2.84209 18.4671C3.05206 18.5596 3.2864 18.5846 3.51172 18.5387L5.56621 18.1308C5.82763 18.0777 6.09978 18.1205 6.33131 18.251C6.56283 18.3815 6.73771 18.5907 6.82295 18.8392L7.48957 20.8034C7.56561 21.0255 7.71359 21.2171 7.91092 21.3489C8.10825 21.4807 8.34408 21.5454 8.58239 21.5332H12.9537C13.1828 21.5338 13.4063 21.4637 13.5926 21.3327C13.7788 21.2017 13.9185 21.0166 13.9918 20.8034L14.6585 18.8392C14.7437 18.5907 14.9186 18.3815 15.1501 18.251C15.3816 18.1205 15.6538 18.0777 15.9152 18.1308L17.9697 18.5387C18.195 18.5846 18.4293 18.5596 18.6393 18.4671C18.8493 18.3746 19.0242 18.2193 19.139 18.0235L21.3246 14.3098C21.4407 14.1137 21.4905 13.8865 21.4669 13.6609C21.4434 13.4353 21.3476 13.2228 21.1935 13.054L19.7182 11.5084ZM18.0899 12.9466L18.9642 13.9126L17.5653 16.2954L16.2758 16.0378C15.4888 15.8798 14.67 16.0111 13.975 16.4068C13.28 16.8025 12.7571 17.4351 12.5056 18.1845L12.0903 19.3866H9.29272L8.89931 18.163C8.6478 17.4136 8.12491 16.7811 7.42991 16.3854C6.7349 15.9896 5.91615 15.8583 5.12909 16.0163L3.83956 16.2739L2.4189 13.9019L3.29315 12.9359C3.83077 12.3456 4.12799 11.5813 4.12799 10.7893C4.12799 9.99722 3.83077 9.23297 3.29315 8.64262L2.4189 7.67663L3.8177 5.31532L5.10723 5.57292C5.8943 5.73093 6.71305 5.59962 7.40805 5.20391C8.10306 4.80819 8.62594 4.17562 8.87745 3.42627L9.29272 2.21341H12.0903L12.5056 3.437C12.7571 4.18635 13.28 4.81892 13.975 5.21464C14.67 5.61035 15.4888 5.74166 16.2758 5.58365L17.5653 5.32605L18.9642 7.70883L18.0899 8.67482C17.5583 9.26382 17.2648 10.0236 17.2648 10.8107C17.2648 11.5978 17.5583 12.3576 18.0899 12.9466ZM10.6915 6.50671C9.82697 6.50671 8.98183 6.7585 8.26298 7.23026C7.54413 7.70201 6.98385 8.37253 6.653 9.15703C6.32215 9.94152 6.23558 10.8048 6.40425 11.6376C6.57292 12.4704 6.98924 13.2354 7.60057 13.8358C8.2119 14.4362 8.99079 14.8451 9.83873 15.0108C10.6867 15.1765 11.5656 15.0914 12.3643 14.7665C13.1631 14.4415 13.8458 13.8913 14.3261 13.1852C14.8064 12.4792 15.0628 11.6491 15.0628 10.8C15.0628 9.66135 14.6023 8.56933 13.7825 7.76418C12.9627 6.95903 11.8509 6.50671 10.6915 6.50671ZM10.6915 12.9466C10.2592 12.9466 9.83668 12.8207 9.47725 12.5849C9.11783 12.349 8.83769 12.0137 8.67226 11.6215C8.50684 11.2292 8.46355 10.7976 8.54789 10.3812C8.63222 9.9648 8.84038 9.5823 9.14605 9.28209C9.45171 8.98188 9.84116 8.77743 10.2651 8.6946C10.6891 8.61177 11.1286 8.65428 11.5279 8.81676C11.9273 8.97923 12.2687 9.25437 12.5088 9.60739C12.749 9.9604 12.8772 10.3754 12.8772 10.8C12.8772 11.3693 12.6469 11.9153 12.237 12.3179C11.8271 12.7205 11.2712 12.9466 10.6915 12.9466Z" fill="#C6C5D1"/>
</svg>
