<svg width="45" height="44" viewBox="0 0 45 44" fill="none" xmlns="http://www.w3.org/2000/svg">
<rect x="0.200195" width="44" height="44" rx="22" fill="white" fill-opacity="0.03"/>
<rect x="0.700195" y="0.5" width="43" height="43" rx="21.5" stroke="url(#paint0_linear_481_519)" stroke-opacity="0.5"/>
<path d="M26.6997 20.3125H25.5747C25.5743 19.8651 25.3963 19.4361 25.08 19.1197C24.7636 18.8034 24.3346 18.6254 23.8872 18.625V17.5C24.6329 17.5009 25.3477 17.7975 25.875 18.3247C26.4022 18.852 26.6988 19.5669 26.6997 20.3125Z" fill="#24C26D"/>
<path d="M28.9501 20.3125H27.8251C27.8239 19.2686 27.4087 18.2678 26.6706 17.5296C25.9324 16.7914 24.9316 16.3762 23.8876 16.375V15.25C25.2298 15.2515 26.5166 15.7853 27.4657 16.7344C28.4148 17.6835 28.9486 18.9703 28.9501 20.3125ZM24.6375 25.0836L25.8974 23.8236C26.0661 23.6549 26.2806 23.5394 26.5142 23.4914C26.7479 23.4434 26.9905 23.4651 27.212 23.5536L28.7465 24.1679C28.9727 24.2584 29.1665 24.4146 29.3031 24.6163C29.4397 24.818 29.5126 25.056 29.5126 25.2996V28.0902C29.513 28.256 29.4796 28.4202 29.4143 28.5727C29.349 28.7252 29.2533 28.8628 29.1331 28.977C29.0128 29.0912 28.8705 29.1797 28.7149 29.237C28.5592 29.2943 28.3935 29.3192 28.2279 29.3102C17.4718 28.6409 15.2994 19.5306 14.8961 16.042C14.8765 15.8715 14.8933 15.6987 14.9454 15.5351C14.9974 15.3715 15.0835 15.2208 15.1979 15.0928C15.3124 14.9649 15.4526 14.8626 15.6094 14.7928C15.7662 14.7229 15.936 14.687 16.1077 14.6875H18.8488C19.0924 14.6875 19.3304 14.7605 19.5321 14.897C19.7338 15.0336 19.89 15.2275 19.9805 15.4536L20.5942 16.9881C20.6828 17.2096 20.7044 17.4522 20.6564 17.6859C20.6084 17.9196 20.4929 18.134 20.3242 18.3027L19.0642 19.5627C19.0642 19.5627 19.7628 24.4744 24.6375 25.0836Z" fill="#24C26D"/>
<defs>
<linearGradient id="paint0_linear_481_519" x1="91.9251" y1="-13.477" x2="25.2307" y2="51.7796" gradientUnits="userSpaceOnUse">
<stop stop-color="#24C26D"/>
<stop offset="1" stop-color="#24C26D" stop-opacity="0"/>
</linearGradient>
</defs>
</svg>
