<svg width="141" height="40" viewBox="0 0 141 40" fill="none" xmlns="http://www.w3.org/2000/svg">
<g clip-path="url(#clip0_106_26973)">
<path d="M62.7167 7.63989V9.42023H65.5878V11.0752H62.7167V13.006H65.964V14.7236H60.5728V5.92225H65.964V7.63989H62.7167ZM72.8344 13.169H69.5498L69.0233 14.7236H66.779L69.9636 5.92225H72.4461L75.6309 14.7236H73.3614L72.8344 13.169ZM72.2829 11.514L71.1924 8.29186L70.1141 11.514H72.2829ZM79.7845 14.8114C79.1408 14.8114 78.5639 14.7069 78.0538 14.4979C77.5445 14.289 77.135 13.9797 76.8255 13.5701C76.5244 13.1606 76.3661 12.6675 76.3492 12.0907H78.6307C78.6645 12.4167 78.777 12.6675 78.9691 12.843C79.1619 13.0101 79.4123 13.0937 79.7219 13.0937C80.0392 13.0937 80.2903 13.0227 80.4739 12.8806C80.6575 12.7301 80.7497 12.5253 80.7497 12.2662C80.7497 12.0489 80.6744 11.8692 80.5239 11.7271C80.3818 11.585 80.2024 11.468 79.985 11.3761C79.776 11.2841 79.4749 11.1797 79.0824 11.0627C78.5139 10.8871 78.0503 10.7116 77.6908 10.5361C77.3313 10.3606 77.0218 10.1014 76.7629 9.75876C76.504 9.41608 76.3738 8.96885 76.3738 8.41722C76.3738 7.5981 76.6707 6.95869 77.2645 6.49898C77.8576 6.03091 78.6307 5.79688 79.584 5.79688C80.5534 5.79688 81.335 6.03091 81.9281 6.49898C82.5219 6.95869 82.8392 7.60228 82.8814 8.42975H80.5619C80.545 8.1456 80.4402 7.92406 80.2481 7.76527C80.056 7.5981 79.8091 7.51452 79.5087 7.51452C79.2491 7.51452 79.0402 7.58557 78.8819 7.72764C78.7229 7.86138 78.6434 8.0578 78.6434 8.3169C78.6434 8.60112 78.777 8.82259 79.0444 8.98145C79.3124 9.14023 79.7303 9.31161 80.2981 9.49544C80.8665 9.68771 81.3266 9.87161 81.6776 10.0471C82.0371 10.2227 82.346 10.4775 82.6056 10.8119C82.8645 11.1462 82.9939 11.5767 82.9939 12.1033C82.9939 12.6048 82.8645 13.0603 82.6056 13.4699C82.3544 13.8794 81.9865 14.2054 81.5018 14.4478C81.017 14.6902 80.4444 14.8114 79.7845 14.8114ZM91.8611 5.92225L88.8141 11.8149V14.7236H86.6705V11.8149L83.6236 5.92225H86.0563L87.761 9.60828L89.4536 5.92225H91.8611ZM105.349 5.92225V14.7236H103.205V9.44527L101.237 14.7236H99.5062L97.5258 9.43275V14.7236H95.3815V5.92225H97.9141L100.384 12.0155L102.829 5.92225H105.349ZM111.053 14.8114C110.226 14.8114 109.465 14.6192 108.772 14.2347C108.086 13.8502 107.538 13.3153 107.129 12.6298C106.728 11.9361 106.527 11.1588 106.527 10.2979C106.527 9.43697 106.728 8.66381 107.129 7.97844C107.538 7.29302 108.086 6.75809 108.772 6.3736C109.465 5.98912 110.226 5.79688 111.053 5.79688C111.881 5.79688 112.637 5.98912 113.323 6.3736C114.016 6.75809 114.559 7.29302 114.953 7.97844C115.354 8.66381 115.554 9.43697 115.554 10.2979C115.554 11.1588 115.354 11.9361 114.953 12.6298C114.551 13.3153 114.008 13.8502 113.323 14.2347C112.637 14.6192 111.881 14.8114 111.053 14.8114ZM111.053 12.8555C111.755 12.8555 112.315 12.6215 112.733 12.1534C113.159 11.6853 113.373 11.0668 113.373 10.2979C113.373 9.52055 113.159 8.90202 112.733 8.44227C112.315 7.97422 111.755 7.74023 111.053 7.74023C110.342 7.74023 109.775 7.97007 109.348 8.42975C108.931 8.8895 108.722 9.51218 108.722 10.2979C108.722 11.0752 108.931 11.6979 109.348 12.166C109.775 12.6257 110.342 12.8555 111.053 12.8555ZM124.62 14.7236H122.477L118.891 9.29486V14.7236H116.747V5.92225H118.891L122.477 11.3761V5.92225H124.62V14.7236ZM128.319 7.63989V9.42023H131.19V11.0752H128.319V13.006H131.565V14.7236H126.174V5.92225H131.565V7.63989H128.319ZM140.505 5.92225L137.459 11.8149V14.7236H135.315V11.8149L132.268 5.92225H134.7L136.406 9.60828L138.098 5.92225H140.505Z" fill="#24C26D"/>
<path d="M62.1741 23.1792V29.8134C62.1741 30.8588 62.4204 31.6328 62.913 32.1354C63.4156 32.638 64.0991 32.8893 64.9635 32.8893C65.828 32.8893 66.5015 32.643 66.9839 32.1505C67.4766 31.6479 67.7228 30.8688 67.7228 29.8134V23.1792H68.7783V29.7984C68.7783 31.1353 68.4214 32.1405 67.7077 32.8139C67.0041 33.4874 66.0844 33.8241 64.9485 33.8241C63.8126 33.8241 62.8878 33.4874 62.1741 32.8139C61.4705 32.1405 61.1187 31.1353 61.1187 29.7984V23.1792H62.1741ZM79.0783 33.7186H78.023L72.188 24.8528V33.7186H71.1327V23.1792H72.188L78.023 32.0299V23.1792H79.0783V33.7186ZM82.5241 23.1792V33.7186H81.4688V23.1792H82.5241ZM93.2675 23.1792L89.2722 33.7186H88.0657L84.0704 23.1792H85.2158L88.6686 32.5727L92.1517 23.1792H93.2675ZM95.9092 24.0386V27.9739H99.9045V28.8484H95.9092V32.844H100.357V33.7186H94.8532V23.1641H100.357V24.0386H95.9092ZM108.046 33.7186L105.437 29.3158H103.492V33.7186H102.436V23.1792H105.603C106.779 23.1792 107.669 23.4606 108.271 24.0235C108.885 24.5864 109.192 25.3253 109.192 26.24C109.192 27.0039 108.971 27.6573 108.528 28.2001C108.096 28.7328 107.453 29.0797 106.598 29.2405L109.312 33.7186H108.046ZM103.492 28.4564H105.618C106.442 28.4564 107.061 28.2553 107.473 27.8533C107.895 27.4512 108.106 26.9135 108.106 26.24C108.106 25.5464 107.905 25.0136 107.502 24.6417C107.101 24.2597 106.468 24.0687 105.603 24.0687H103.492V28.4564ZM114.483 33.8241C113.789 33.8241 113.176 33.7035 112.643 33.4623C112.12 33.221 111.708 32.8843 111.407 32.452C111.105 32.0198 110.944 31.5373 110.924 31.0046H112.04C112.09 31.5172 112.317 31.9696 112.718 32.3616C113.121 32.7436 113.708 32.9345 114.483 32.9345C115.196 32.9345 115.759 32.7536 116.171 32.3917C116.593 32.0198 116.804 31.5524 116.804 30.9895C116.804 30.5371 116.689 30.1753 116.458 29.9039C116.227 29.6224 115.94 29.4164 115.599 29.2857C115.257 29.1449 114.784 28.9942 114.181 28.8334C113.477 28.6424 112.92 28.4564 112.507 28.2755C112.095 28.0945 111.743 27.8131 111.452 27.4311C111.16 27.0492 111.014 26.5314 111.014 25.8781C111.014 25.3353 111.155 24.8528 111.437 24.4306C111.718 23.9984 112.115 23.6617 112.628 23.4204C113.14 23.1792 113.729 23.0585 114.392 23.0585C115.367 23.0585 116.152 23.2998 116.744 23.7822C117.348 24.2547 117.694 24.8678 117.784 25.6218H116.638C116.568 25.1896 116.332 24.8075 115.93 24.4758C115.528 24.1341 114.985 23.9632 114.301 23.9632C113.668 23.9632 113.14 24.1341 112.718 24.4758C112.296 24.8075 112.085 25.2649 112.085 25.8479C112.085 26.2902 112.201 26.647 112.432 26.9185C112.663 27.1899 112.95 27.3959 113.292 27.5366C113.643 27.6774 114.116 27.8282 114.709 27.989C115.392 28.18 115.945 28.3709 116.368 28.5619C116.79 28.7429 117.146 29.0244 117.438 29.4063C117.73 29.7883 117.875 30.301 117.875 30.9443C117.875 31.4368 117.744 31.9042 117.483 32.3465C117.222 32.7888 116.835 33.1456 116.322 33.4171C115.81 33.6884 115.196 33.8241 114.483 33.8241ZM120.97 23.1792V33.7186H119.915V23.1792H120.97ZM129.527 23.1792V24.0537H126.602V33.7186H125.546V24.0537H122.606V23.1792H129.527ZM138.16 23.1792L134.782 29.6174V33.7186H133.727V29.6174L130.319 23.1792H131.51L134.254 28.6524L136.983 23.1792H138.16Z" fill="white"/>
<path d="M39.3931 29.8211H35.5322V17.3031L29.355 23.5833L17.9871 12.7202H8.0349L3.31616 8.39197H19.1025L29.355 18.1942L39.3931 8.39197V29.8211Z" fill="#24C26D"/>
<path d="M16.6578 16.7517H8.55022L3.48829 21.3346H17.3013V24.9839H5.29L0.699951 29.7365H29.8703L16.6578 16.7517Z" fill="#24C26D"/>
</g>
<defs>
<clipPath id="clip0_106_26973">
<rect width="140" height="38.6935" fill="white" transform="translate(0.699951 0.653259)"/>
</clipPath>
</defs>
</svg>
