<svg width="19" height="19" viewBox="0 0 19 19" fill="none" xmlns="http://www.w3.org/2000/svg">
<path d="M16.9273 13.8599H5.07818V2.01084H16.9273M16.9273 0.318115H5.07818C4.62924 0.318115 4.19869 0.496456 3.88124 0.813904C3.5638 1.13135 3.38545 1.5619 3.38545 2.01084V13.8599C3.38545 14.3089 3.5638 14.7394 3.88124 15.0569C4.19869 15.3743 4.62924 15.5527 5.07818 15.5527H16.9273C17.3762 15.5527 17.8068 15.3743 18.1242 15.0569C18.4417 14.7394 18.62 14.3089 18.62 13.8599V2.01084C18.62 1.5619 18.4417 1.13135 18.1242 0.813904C17.8068 0.496456 17.3762 0.318115 16.9273 0.318115ZM1.69273 3.70357H0V17.2454C0 17.6943 0.17834 18.1249 0.495788 18.4423C0.813236 18.7598 1.24379 18.9381 1.69273 18.9381H15.2345V17.2454H1.69273M12.6616 8.18083L10.3341 11.177L8.67523 9.17954L6.34773 12.1672H15.6577L12.6616 8.18083Z" fill="#AAAAAA"/>
</svg>
