<svg width="8" height="18" viewBox="0 0 8 18" fill="none" xmlns="http://www.w3.org/2000/svg">
<path d="M5.87391 6.45842L1.75191 6.97502L1.60431 7.65902L2.41431 7.80842C2.94351 7.93442 3.04791 8.12522 2.93271 8.65262L1.60431 14.895C1.25511 16.5096 1.79331 17.2692 3.05871 17.2692C4.03971 17.2692 5.17911 16.8156 5.69571 16.1928L5.85411 15.444C5.49411 15.7608 4.96851 15.8868 4.61931 15.8868C4.12431 15.8868 3.94431 15.5394 4.07211 14.9274L5.87391 6.45842ZM5.99991 2.70002C5.99991 3.17741 5.81027 3.63525 5.47271 3.97282C5.13514 4.31038 4.6773 4.50002 4.19991 4.50002C3.72252 4.50002 3.26469 4.31038 2.92712 3.97282C2.58956 3.63525 2.39991 3.17741 2.39991 2.70002C2.39991 2.22263 2.58956 1.7648 2.92712 1.42723C3.26469 1.08967 3.72252 0.900024 4.19991 0.900024C4.6773 0.900024 5.13514 1.08967 5.47271 1.42723C5.81027 1.7648 5.99991 2.22263 5.99991 2.70002Z" fill="#24C26D"/>
</svg>
