<svg width="304" height="44" viewBox="0 0 304 44" fill="none" xmlns="http://www.w3.org/2000/svg">
<rect width="304" height="44" rx="20" fill="#24C26D"/>
<path d="M133.646 25.712H136.936V27H132.05V17.27H133.646V25.712ZM141.617 27.126C140.889 27.126 140.231 26.9627 139.643 26.636C139.055 26.3 138.593 25.8333 138.257 25.236C137.921 24.6293 137.753 23.9293 137.753 23.136C137.753 22.352 137.925 21.6567 138.271 21.05C138.616 20.4433 139.087 19.9767 139.685 19.65C140.282 19.3233 140.949 19.16 141.687 19.16C142.424 19.16 143.091 19.3233 143.689 19.65C144.286 19.9767 144.757 20.4433 145.103 21.05C145.448 21.6567 145.621 22.352 145.621 23.136C145.621 23.92 145.443 24.6153 145.089 25.222C144.734 25.8287 144.249 26.3 143.633 26.636C143.026 26.9627 142.354 27.126 141.617 27.126ZM141.617 25.74C142.027 25.74 142.41 25.642 142.765 25.446C143.129 25.25 143.423 24.956 143.647 24.564C143.871 24.172 143.983 23.696 143.983 23.136C143.983 22.576 143.875 22.1047 143.661 21.722C143.446 21.33 143.161 21.036 142.807 20.84C142.452 20.644 142.069 20.546 141.659 20.546C141.248 20.546 140.865 20.644 140.511 20.84C140.165 21.036 139.89 21.33 139.685 21.722C139.479 22.1047 139.377 22.576 139.377 23.136C139.377 23.9667 139.587 24.6107 140.007 25.068C140.436 25.516 140.973 25.74 141.617 25.74ZM150.306 19.16C150.904 19.16 151.431 19.2813 151.888 19.524C152.355 19.7573 152.719 20.0513 152.98 20.406V19.286H154.59V27.126C154.59 27.8353 154.441 28.4653 154.142 29.016C153.844 29.576 153.41 30.0147 152.84 30.332C152.28 30.6493 151.608 30.808 150.824 30.808C149.779 30.808 148.911 30.5607 148.22 30.066C147.53 29.5807 147.138 28.918 147.044 28.078H148.626C148.748 28.4793 149.004 28.8013 149.396 29.044C149.798 29.296 150.274 29.422 150.824 29.422C151.468 29.422 151.986 29.226 152.378 28.834C152.78 28.442 152.98 27.8727 152.98 27.126V25.838C152.71 26.202 152.341 26.51 151.874 26.762C151.417 27.0047 150.894 27.126 150.306 27.126C149.634 27.126 149.018 26.958 148.458 26.622C147.908 26.2767 147.469 25.8007 147.142 25.194C146.825 24.578 146.666 23.8827 146.666 23.108C146.666 22.3333 146.825 21.6473 147.142 21.05C147.469 20.4527 147.908 19.9907 148.458 19.664C149.018 19.328 149.634 19.16 150.306 19.16ZM152.98 23.136C152.98 22.604 152.868 22.142 152.644 21.75C152.43 21.358 152.145 21.0593 151.79 20.854C151.436 20.6487 151.053 20.546 150.642 20.546C150.232 20.546 149.849 20.6487 149.494 20.854C149.14 21.05 148.85 21.344 148.626 21.736C148.412 22.1187 148.304 22.576 148.304 23.108C148.304 23.64 148.412 24.1067 148.626 24.508C148.85 24.9093 149.14 25.2173 149.494 25.432C149.858 25.6373 150.241 25.74 150.642 25.74C151.053 25.74 151.436 25.6373 151.79 25.432C152.145 25.2267 152.43 24.928 152.644 24.536C152.868 24.1347 152.98 23.668 152.98 23.136ZM161.135 18.264C160.846 18.264 160.603 18.166 160.407 17.97C160.211 17.774 160.113 17.5313 160.113 17.242C160.113 16.9527 160.211 16.71 160.407 16.514C160.603 16.318 160.846 16.22 161.135 16.22C161.415 16.22 161.653 16.318 161.849 16.514C162.045 16.71 162.143 16.9527 162.143 17.242C162.143 17.5313 162.045 17.774 161.849 17.97C161.653 18.166 161.415 18.264 161.135 18.264ZM161.919 19.286V27H160.323V19.286H161.919ZM167.907 19.16C168.514 19.16 169.055 19.286 169.531 19.538C170.016 19.79 170.394 20.1633 170.665 20.658C170.936 21.1527 171.071 21.75 171.071 22.45V27H169.489V22.688C169.489 21.9973 169.316 21.47 168.971 21.106C168.626 20.7327 168.154 20.546 167.557 20.546C166.96 20.546 166.484 20.7327 166.129 21.106C165.784 21.47 165.611 21.9973 165.611 22.688V27H164.015V19.286H165.611V20.168C165.872 19.8507 166.204 19.6033 166.605 19.426C167.016 19.2487 167.45 19.16 167.907 19.16Z" fill="white"/>
</svg>
