<svg width="26" height="26" viewBox="0 0 26 26" fill="none" xmlns="http://www.w3.org/2000/svg">
<g clip-path="url(#clip0_95_20456)">
<path d="M0.5 10.5V20.5C0.5 21.163 0.763392 21.7989 1.23223 22.2678C1.70107 22.7366 2.33696 23 3 23H23C23.663 23 24.2989 22.7366 24.7678 22.2678C25.2366 21.7989 25.5 21.163 25.5 20.5V10.5L13 15.5L0.5 10.5Z" fill="#0A1119"/>
<path d="M3 3C2.33696 3 1.70107 3.26339 1.23223 3.73223C0.763392 4.20107 0.5 4.83696 0.5 5.5L0.5 8L13 13L25.5 8V5.5C25.5 4.83696 25.2366 4.20107 24.7678 3.73223C24.2989 3.26339 23.663 3 23 3H3Z" fill="#0A1119"/>
</g>
<defs>
<clipPath id="clip0_95_20456">
<rect width="25" height="25" fill="white" transform="translate(0.5 0.5)"/>
</clipPath>
</defs>
</svg>
