<svg width="7" height="8" viewBox="0 0 7 8" fill="none" xmlns="http://www.w3.org/2000/svg">
<rect x="0.291539" y="0.842748" width="6.39128" height="6.39128" rx="3.19564" stroke="#24C26D" stroke-width="0.583079"/>
<path d="M2.89985 5.8957C3.01446 5.8957 3.10382 5.85102 3.16598 5.75778L4.98417 2.94502C5.03079 2.87509 5.04828 2.81293 5.04828 2.75271C5.04828 2.59925 4.93561 2.48853 4.77827 2.48853C4.66949 2.48853 4.60344 2.52738 4.5374 2.63227L2.89208 5.23913L2.04903 4.17074C1.98493 4.0911 1.91888 4.05614 1.8237 4.05614C1.66441 4.05614 1.5498 4.1688 1.5498 4.3242C1.5498 4.39219 1.57311 4.45629 1.62945 4.52428L2.63567 5.76361C2.70949 5.85491 2.79107 5.8957 2.89985 5.8957Z" fill="#24C26D"/>
</svg>
