<svg width="177" height="66" viewBox="0 0 177 66" fill="none" xmlns="http://www.w3.org/2000/svg">
<g filter="url(#filter0_b_95_19903)">
<path d="M1.23022 26.5704C4.20145 11.4151 18.0387 0.877438 33.4385 2.04238L157.222 11.4061C168.096 12.2287 176.5 21.2921 176.5 32.1978C176.5 43.073 168.142 52.1218 157.301 52.9833L33.5539 62.8171C13.4364 64.4157 -2.65236 46.3743 1.23022 26.5704Z" fill="#24C26D" fill-opacity="0.12"/>
<path d="M1.72088 26.6666C4.64336 11.7599 18.2536 1.39512 33.4008 2.54095L157.184 11.9047C167.798 12.7075 176 21.5536 176 32.1978C176 42.8122 167.842 51.6441 157.261 52.4849L33.5142 62.3186C13.7268 63.8911 -2.09801 46.1456 1.72088 26.6666Z" stroke="url(#paint0_linear_95_19903)" stroke-opacity="0.5"/>
</g>
<g clip-path="url(#clip0_95_19903)">
<path d="M56.0425 21.4941L46.7925 45.3899C46.701 45.6266 46.5525 45.837 46.3602 46.0025C46.1678 46.168 45.9376 46.2835 45.69 46.3387C45.4423 46.3939 45.1848 46.3872 44.9404 46.319C44.696 46.2508 44.4722 46.1234 44.2888 45.948L39.0749 40.9607L35.8775 44.1566C35.7696 44.2641 35.6323 44.3373 35.4828 44.3668C35.3334 44.3964 35.1785 44.381 35.0378 44.3226C34.8971 44.2642 34.7769 44.1654 34.6923 44.0388C34.6077 43.9121 34.5625 43.7632 34.5625 43.6108V36.644L26.5597 28.9897C26.3611 28.7997 26.2169 28.5601 26.1421 28.2957C26.0672 28.0313 26.0644 27.7517 26.1339 27.4858C26.2033 27.22 26.3426 26.9775 26.5373 26.7835C26.732 26.5896 26.975 26.4512 27.2411 26.3827L54.2202 19.4452C54.4945 19.3749 54.7829 19.3816 55.0536 19.4644C55.3244 19.5472 55.5671 19.7029 55.7552 19.9146C55.9433 20.1262 56.0695 20.3856 56.1199 20.6642C56.1703 20.9428 56.143 21.2299 56.0409 21.4941H56.0425ZM52.2916 23.2516L35.3826 34.276L38.0574 36.8352L52.2916 23.2516Z" fill="#24C26D"/>
</g>
<path d="M71.172 37.598C70.528 37.598 69.9493 37.486 69.436 37.262C68.932 37.0287 68.5353 36.7113 68.246 36.31C67.9567 35.8993 67.8073 35.428 67.798 34.896H69.156C69.2027 35.3533 69.3893 35.7407 69.716 36.058C70.052 36.366 70.5373 36.52 71.172 36.52C71.7787 36.52 72.2547 36.3707 72.6 36.072C72.9547 35.764 73.132 35.372 73.132 34.896C73.132 34.5227 73.0293 34.2193 72.824 33.986C72.6187 33.7527 72.362 33.5753 72.054 33.454C71.746 33.3327 71.3307 33.202 70.808 33.062C70.164 32.894 69.646 32.726 69.254 32.558C68.8713 32.39 68.54 32.1287 68.26 31.774C67.9893 31.41 67.854 30.9247 67.854 30.318C67.854 29.786 67.9893 29.3147 68.26 28.904C68.5307 28.4933 68.9087 28.176 69.394 27.952C69.8887 27.728 70.4533 27.616 71.088 27.616C72.0027 27.616 72.7493 27.8447 73.328 28.302C73.916 28.7593 74.2473 29.366 74.322 30.122H72.922C72.8753 29.7487 72.6793 29.422 72.334 29.142C71.9887 28.8527 71.5313 28.708 70.962 28.708C70.43 28.708 69.996 28.848 69.66 29.128C69.324 29.3987 69.156 29.7813 69.156 30.276C69.156 30.6307 69.254 30.92 69.45 31.144C69.6553 31.368 69.9027 31.5407 70.192 31.662C70.4907 31.774 70.906 31.9047 71.438 32.054C72.082 32.2313 72.6 32.4087 72.992 32.586C73.384 32.754 73.72 33.02 74 33.384C74.28 33.7387 74.42 34.224 74.42 34.84C74.42 35.316 74.294 35.764 74.042 36.184C73.79 36.604 73.4167 36.9447 72.922 37.206C72.4273 37.4673 71.844 37.598 71.172 37.598ZM77.8488 30.878V35.4C77.8488 35.7733 77.9281 36.0393 78.0868 36.198C78.2455 36.3473 78.5208 36.422 78.9128 36.422H79.8508V37.5H78.7028C77.9935 37.5 77.4615 37.3367 77.1068 37.01C76.7521 36.6833 76.5748 36.1467 76.5748 35.4V30.878H75.5808V29.828H76.5748V27.896H77.8488V29.828H79.8508V30.878H77.8488ZM80.9184 33.636C80.9184 32.852 81.0771 32.166 81.3944 31.578C81.7117 30.9807 82.1457 30.5187 82.6964 30.192C83.2564 29.8653 83.8771 29.702 84.5584 29.702C85.2304 29.702 85.8137 29.8467 86.3084 30.136C86.8031 30.4253 87.1717 30.7893 87.4144 31.228V29.828H88.7024V37.5H87.4144V36.072C87.1624 36.52 86.7844 36.8933 86.2804 37.192C85.7857 37.4813 85.2071 37.626 84.5444 37.626C83.8631 37.626 83.2471 37.458 82.6964 37.122C82.1457 36.786 81.7117 36.3147 81.3944 35.708C81.0771 35.1013 80.9184 34.4107 80.9184 33.636ZM87.4144 33.65C87.4144 33.0713 87.2977 32.5673 87.0644 32.138C86.8311 31.7087 86.5137 31.382 86.1124 31.158C85.7204 30.9247 85.2864 30.808 84.8104 30.808C84.3344 30.808 83.9004 30.92 83.5084 31.144C83.1164 31.368 82.8037 31.6947 82.5704 32.124C82.3371 32.5533 82.2204 33.0573 82.2204 33.636C82.2204 34.224 82.3371 34.7373 82.5704 35.176C82.8037 35.6053 83.1164 35.9367 83.5084 36.17C83.9004 36.394 84.3344 36.506 84.8104 36.506C85.2864 36.506 85.7204 36.394 86.1124 36.17C86.5137 35.9367 86.8311 35.6053 87.0644 35.176C87.2977 34.7373 87.4144 34.2287 87.4144 33.65ZM92.1293 31.074C92.3533 30.6353 92.6707 30.2947 93.0813 30.052C93.5013 29.8093 94.01 29.688 94.6073 29.688V31.004H94.2713C92.8433 31.004 92.1293 31.7787 92.1293 33.328V37.5H90.8553V29.828H92.1293V31.074ZM97.632 30.878V35.4C97.632 35.7733 97.7113 36.0393 97.87 36.198C98.0287 36.3473 98.304 36.422 98.696 36.422H99.634V37.5H98.486C97.7767 37.5 97.2447 37.3367 96.89 37.01C96.5353 36.6833 96.358 36.1467 96.358 35.4V30.878H95.364V29.828H96.358V27.896H97.632V29.828H99.634V30.878H97.632ZM104.434 32.614C104.434 31.662 104.649 30.808 105.078 30.052C105.507 29.2867 106.091 28.6893 106.828 28.26C107.575 27.8307 108.401 27.616 109.306 27.616C110.37 27.616 111.299 27.8727 112.092 28.386C112.885 28.8993 113.464 29.6273 113.828 30.57H112.302C112.031 29.982 111.639 29.5293 111.126 29.212C110.622 28.8947 110.015 28.736 109.306 28.736C108.625 28.736 108.013 28.8947 107.472 29.212C106.931 29.5293 106.506 29.982 106.198 30.57C105.89 31.1487 105.736 31.83 105.736 32.614C105.736 33.3887 105.89 34.07 106.198 34.658C106.506 35.2367 106.931 35.6847 107.472 36.002C108.013 36.3193 108.625 36.478 109.306 36.478C110.015 36.478 110.622 36.324 111.126 36.016C111.639 35.6987 112.031 35.246 112.302 34.658H113.828C113.464 35.5913 112.885 36.3147 112.092 36.828C111.299 37.332 110.37 37.584 109.306 37.584C108.401 37.584 107.575 37.374 106.828 36.954C106.091 36.5247 105.507 35.932 105.078 35.176C104.649 34.42 104.434 33.566 104.434 32.614ZM119.532 29.688C120.111 29.688 120.634 29.814 121.1 30.066C121.567 30.3087 121.931 30.6773 122.192 31.172C122.463 31.6667 122.598 32.2687 122.598 32.978V37.5H121.338V33.16C121.338 32.3947 121.147 31.8113 120.764 31.41C120.382 30.9993 119.859 30.794 119.196 30.794C118.524 30.794 117.988 31.004 117.586 31.424C117.194 31.844 116.998 32.4553 116.998 33.258V37.5H115.724V27.14H116.998V30.92C117.25 30.528 117.596 30.2247 118.034 30.01C118.482 29.7953 118.982 29.688 119.532 29.688ZM124.204 33.636C124.204 32.852 124.362 32.166 124.68 31.578C124.997 30.9807 125.431 30.5187 125.982 30.192C126.542 29.8653 127.162 29.702 127.844 29.702C128.516 29.702 129.099 29.8467 129.594 30.136C130.088 30.4253 130.457 30.7893 130.7 31.228V29.828H131.988V37.5H130.7V36.072C130.448 36.52 130.07 36.8933 129.566 37.192C129.071 37.4813 128.492 37.626 127.83 37.626C127.148 37.626 126.532 37.458 125.982 37.122C125.431 36.786 124.997 36.3147 124.68 35.708C124.362 35.1013 124.204 34.4107 124.204 33.636ZM130.7 33.65C130.7 33.0713 130.583 32.5673 130.35 32.138C130.116 31.7087 129.799 31.382 129.398 31.158C129.006 30.9247 128.572 30.808 128.096 30.808C127.62 30.808 127.186 30.92 126.794 31.144C126.402 31.368 126.089 31.6947 125.856 32.124C125.622 32.5533 125.506 33.0573 125.506 33.636C125.506 34.224 125.622 34.7373 125.856 35.176C126.089 35.6053 126.402 35.9367 126.794 36.17C127.186 36.394 127.62 36.506 128.096 36.506C128.572 36.506 129.006 36.394 129.398 36.17C129.799 35.9367 130.116 35.6053 130.35 35.176C130.583 34.7373 130.7 34.2287 130.7 33.65ZM135.695 30.878V35.4C135.695 35.7733 135.774 36.0393 135.933 36.198C136.091 36.3473 136.367 36.422 136.758 36.422H137.697V37.5H136.549C135.839 37.5 135.307 37.3367 134.953 37.01C134.598 36.6833 134.421 36.1467 134.421 35.4V30.878H133.427V29.828H134.421V27.896H135.695V29.828H137.697V30.878H135.695Z" fill="#24C26D"/>
<defs>
<filter id="filter0_b_95_19903" x="-99.3516" y="-98.0455" width="375.852" height="260.961" filterUnits="userSpaceOnUse" color-interpolation-filters="sRGB">
<feFlood flood-opacity="0" result="BackgroundImageFix"/>
<feGaussianBlur in="BackgroundImageFix" stdDeviation="50"/>
<feComposite in2="SourceAlpha" operator="in" result="effect1_backgroundBlur_95_19903"/>
<feBlend mode="normal" in="SourceGraphic" in2="effect1_backgroundBlur_95_19903" result="shape"/>
</filter>
<linearGradient id="paint0_linear_95_19903" x1="374.992" y1="-20.2155" x2="310.047" y2="155.976" gradientUnits="userSpaceOnUse">
<stop stop-color="#24C26D"/>
<stop offset="1" stop-color="#24C26D" stop-opacity="0"/>
</linearGradient>
<clipPath id="clip0_95_19903">
<rect width="37" height="37" fill="white" transform="translate(23 14)"/>
</clipPath>
</defs>
</svg>
