<svg width="8" height="8" viewBox="0 0 8 8" fill="none" xmlns="http://www.w3.org/2000/svg">
<rect x="0.334413" y="0.334413" width="7.33117" height="7.33117" rx="3.66559" stroke="#C6C5D1" stroke-width="0.668826"/>
<path d="M3.32642 6.13052C3.45788 6.13052 3.56038 6.07927 3.63168 5.97232L5.71726 2.74591C5.77073 2.6657 5.79079 2.5944 5.79079 2.52532C5.79079 2.3493 5.66155 2.22229 5.48107 2.22229C5.35629 2.22229 5.28053 2.26685 5.20477 2.38718L3.31751 5.37739L2.35047 4.15189C2.27694 4.06054 2.20119 4.02043 2.09201 4.02043C1.90929 4.02043 1.77783 4.14967 1.77783 4.32792C1.77783 4.40591 1.80457 4.47944 1.86919 4.55742L3.02339 5.979C3.10806 6.08373 3.20164 6.13052 3.32642 6.13052Z" fill="#C6C5D1"/>
</svg>
