<svg width="19" height="21" viewBox="0 0 19 21" fill="none" xmlns="http://www.w3.org/2000/svg">
<path d="M9.5 10.8C10.7598 10.8 11.968 10.2648 12.8588 9.31228C13.7496 8.35971 14.25 7.06775 14.25 5.72061C14.25 4.37348 13.7496 3.08152 12.8588 2.12895C11.968 1.17638 10.7598 0.641235 9.5 0.641235C8.24022 0.641235 7.03204 1.17638 6.14124 2.12895C5.25044 3.08152 4.75 4.37348 4.75 5.72061C4.75 7.06775 5.25044 8.35971 6.14124 9.31228C7.03204 10.2648 8.24022 10.8 9.5 10.8ZM12.6667 5.72061C12.6667 6.6187 12.333 7.48001 11.7392 8.11506C11.1453 8.7501 10.3399 9.10687 9.5 9.10687C8.66015 9.10687 7.85469 8.7501 7.26083 8.11506C6.66696 7.48001 6.33333 6.6187 6.33333 5.72061C6.33333 4.82252 6.66696 3.96122 7.26083 3.32617C7.85469 2.69113 8.66015 2.33436 9.5 2.33436C10.3399 2.33436 11.1453 2.69113 11.7392 3.32617C12.333 3.96122 12.6667 4.82252 12.6667 5.72061ZM19 19.2656C19 20.9588 17.4167 20.9588 17.4167 20.9588H1.58333C1.58333 20.9588 0 20.9588 0 19.2656C0 17.5725 1.58333 12.4931 9.5 12.4931C17.4167 12.4931 19 17.5725 19 19.2656ZM17.4167 19.2589C17.4151 18.8423 17.1728 17.5894 16.0993 16.4415C15.067 15.3376 13.1242 14.1862 9.5 14.1862C5.87417 14.1862 3.933 15.3376 2.90067 16.4415C1.82717 17.5894 1.5865 18.8423 1.58333 19.2589H17.4167Z" fill="#CECFD1"/>
</svg>
