<svg width="27" height="22" viewBox="0 0 27 22" fill="none" xmlns="http://www.w3.org/2000/svg">
<path d="M9.20009 14.7C9.10299 14.7 9.0059 14.7142 8.91327 14.7443C8.38677 14.9153 7.83305 15.025 7.25008 15.025C6.66711 15.025 6.11339 14.9153 5.58648 14.7443C5.49386 14.7142 5.39717 14.7 5.30008 14.7C2.77888 14.7 0.736659 16.7508 0.750066 19.2752C0.755753 20.342 1.63285 21.2 2.70007 21.2H11.8001C12.8673 21.2 13.7444 20.342 13.7501 19.2752C13.7635 16.7508 11.7213 14.7 9.20009 14.7ZM7.25008 13.4C9.40402 13.4 11.1501 11.6539 11.1501 9.49998C11.1501 7.34604 9.40402 5.59998 7.25008 5.59998C5.09614 5.59998 3.35007 7.34604 3.35007 9.49998C3.35007 11.6539 5.09614 13.4 7.25008 13.4ZM24.8001 0.399963H9.20009C8.12474 0.399963 7.25008 1.30387 7.25008 2.41456V4.29997C8.20152 4.29997 9.08227 4.57541 9.85009 5.0231V2.99997H24.1501V14.7H21.5501V12.1H16.3501V14.7H13.2528C14.0288 15.378 14.5983 16.2734 14.8653 17.3H24.8001C25.8755 17.3 26.7501 16.3961 26.7501 15.2854V2.41456C26.7501 1.30387 25.8755 0.399963 24.8001 0.399963Z" fill="#CECFD1"/>
</svg>
